<mxfile host="app.diagrams.net" modified="2024-03-23T22:44:24.007Z" agent="Mozilla/5.0 (Windows NT 10.0; Win64; x64) AppleWebKit/537.36 (KHTML, like Gecko) Chrome/122.0.0.0 Safari/537.36" etag="WSiMVjRS-vlqg2EEDmQQ" version="24.0.7" type="github">
  <diagram name="Page-1" id="TF00enYqn4cRz_x6tT_c">
    <mxGraphModel dx="539" dy="502" grid="1" gridSize="10" guides="1" tooltips="1" connect="1" arrows="1" fold="1" page="1" pageScale="1" pageWidth="850" pageHeight="1100" math="0" shadow="0">
      <root>
        <mxCell id="0" />
        <mxCell id="1" parent="0" />
        <mxCell id="5h5830km4zUdWlPRBgJH-15" value="Software (Unity + Matlab)" style="swimlane;fontStyle=0;childLayout=stackLayout;horizontal=1;startSize=30;horizontalStack=0;resizeParent=1;resizeParentMax=0;resizeLast=0;collapsible=1;marginBottom=0;whiteSpace=wrap;html=1;" vertex="1" parent="1">
          <mxGeometry x="40" y="40" width="140" height="120" as="geometry">
            <mxRectangle x="40" y="40" width="90" height="30" as="alternateBounds" />
          </mxGeometry>
        </mxCell>
        <mxCell id="5h5830km4zUdWlPRBgJH-16" value="1. Capture Image" style="text;strokeColor=none;fillColor=none;align=left;verticalAlign=middle;spacingLeft=4;spacingRight=4;overflow=hidden;points=[[0,0.5],[1,0.5]];portConstraint=eastwest;rotatable=0;whiteSpace=wrap;html=1;" vertex="1" parent="5h5830km4zUdWlPRBgJH-15">
          <mxGeometry y="30" width="140" height="30" as="geometry" />
        </mxCell>
        <mxCell id="5h5830km4zUdWlPRBgJH-20" style="edgeStyle=orthogonalEdgeStyle;rounded=0;orthogonalLoop=1;jettySize=auto;html=1;exitX=1;exitY=0.5;exitDx=0;exitDy=0;" edge="1" parent="5h5830km4zUdWlPRBgJH-15" source="5h5830km4zUdWlPRBgJH-17">
          <mxGeometry relative="1" as="geometry">
            <mxPoint x="240" y="75.24137931034488" as="targetPoint" />
          </mxGeometry>
        </mxCell>
        <mxCell id="5h5830km4zUdWlPRBgJH-17" value="2. Change Image Gray" style="text;strokeColor=none;fillColor=none;align=left;verticalAlign=middle;spacingLeft=4;spacingRight=4;overflow=hidden;points=[[0,0.5],[1,0.5]];portConstraint=eastwest;rotatable=0;whiteSpace=wrap;html=1;" vertex="1" parent="5h5830km4zUdWlPRBgJH-15">
          <mxGeometry y="60" width="140" height="30" as="geometry" />
        </mxCell>
        <mxCell id="5h5830km4zUdWlPRBgJH-18" value="3. Load into Memory" style="text;strokeColor=none;fillColor=none;align=left;verticalAlign=middle;spacingLeft=4;spacingRight=4;overflow=hidden;points=[[0,0.5],[1,0.5]];portConstraint=eastwest;rotatable=0;whiteSpace=wrap;html=1;" vertex="1" parent="5h5830km4zUdWlPRBgJH-15">
          <mxGeometry y="90" width="140" height="30" as="geometry" />
        </mxCell>
        <mxCell id="5h5830km4zUdWlPRBgJH-21" value="FPGA" style="rounded=0;whiteSpace=wrap;html=1;verticalAlign=top;" vertex="1" parent="1">
          <mxGeometry x="280" y="40" width="400" height="280" as="geometry" />
        </mxCell>
        <mxCell id="5h5830km4zUdWlPRBgJH-23" value="" style="whiteSpace=wrap;html=1;aspect=fixed;verticalAlign=middle;" vertex="1" parent="1">
          <mxGeometry x="310" y="70" width="80" height="80" as="geometry" />
        </mxCell>
      </root>
    </mxGraphModel>
  </diagram>
</mxfile>
